<svg width="320" height="315" viewBox="0 0 320 315" fill="none" xmlns="http://www.w3.org/2000/svg">
<path d="M153.5 281L171 315H0V281H153.5Z" fill="url(#paint0_linear_168_6)"/>
<path d="M0 0H187C229.5 0 320 51.5 320 141C320 230.5 293 244 258 281L237.5 251.5C268.833 222.333 278 198.5 278 141C278 74.5 214.4 43.7 178 36.5H38V204.5H167C193.833 187.333 230 143.5 167 111.5H113V165.5H78V74.5C107.167 72.6667 171 74.5 171 74.5C171 74.5 226.5 82.5 237.5 141C243 185 229.5 198.5 229.5 198.5C224.833 204 210 228.5 195 230.5L228 297L197 311.5L165 244H0V0Z" fill="url(#paint1_linear_168_6)"/>
<defs>
<linearGradient id="paint0_linear_168_6" x1="-1.61166e-06" y1="128" x2="320" y2="128" gradientUnits="userSpaceOnUse">
<stop stop-color="#AC5700"/>
<stop offset="0.232148" stop-color="#B06802"/>
<stop offset="0.441807" stop-color="#CC7A00"/>
<stop offset="0.654847" stop-color="#EA8700"/>
<stop offset="1" stop-color="#EDC211"/>
</linearGradient>
<linearGradient id="paint1_linear_168_6" x1="-1.61166e-06" y1="128" x2="320" y2="128" gradientUnits="userSpaceOnUse">
<stop stop-color="#AC5700"/>
<stop offset="0.232148" stop-color="#B06802"/>
<stop offset="0.441807" stop-color="#CC7A00"/>
<stop offset="0.654847" stop-color="#EA8700"/>
<stop offset="1" stop-color="#EDC211"/>
</linearGradient>
</defs>
</svg>
