<svg width="137" height="169" viewBox="0 0 137 169" fill="none" xmlns="http://www.w3.org/2000/svg">
<path d="M106.146 57.5955C110.571 57.5955 114.152 53.9162 114.152 49.4192L114.192 8.53743C114.192 4.04044 110.571 0.361084 106.146 0.361084H41.7734C37.3478 0.361084 33.7268 4.04044 33.7268 8.53743V49.4192C33.7268 53.9162 37.3478 57.5955 41.7734 57.5955H25.6802V65.7719H122.239V57.5955H106.146ZM41.7734 8.53743H106.146V49.4192H41.7734V8.53743Z" fill="#2A324B"/>
<path d="M119.64 94.5836L120.837 101.343C118.355 100.498 115.698 100.034 112.895 100.034C110.12 100.034 107.434 100.498 104.981 101.315L106.178 94.5836H119.64ZM120.837 142.333L119.64 149.093H106.178L104.981 142.361C107.434 143.178 110.12 143.642 112.895 143.642C115.698 143.642 118.355 143.178 120.837 142.333ZM124.575 89.1327H101.214L98.4399 104.75C93.0085 108.729 89.5336 114.888 89.5336 121.838C89.5336 128.788 93.0085 134.947 98.4399 138.927L101.214 154.543H124.575L127.378 138.927C132.781 134.947 136.256 128.761 136.256 121.838C136.256 114.915 132.781 108.729 127.378 104.75L124.575 89.1327ZM112.895 138.191C103.229 138.191 95.3738 130.859 95.3738 121.838C95.3738 112.817 103.229 105.485 112.895 105.485C122.56 105.485 130.415 112.817 130.415 121.838C130.415 130.859 122.56 138.191 112.895 138.191Z" fill="#2A324B"/>
<path d="M61.7598 72.0013H12.9613C6.21082 72.0013 0.761658 77.3925 0.761658 84.0712V156.49C0.761658 163.169 6.21082 168.56 12.9613 168.56H61.7598C68.5103 168.56 73.9594 163.169 73.9594 156.49V84.0712C73.9594 77.3925 68.5103 72.0013 61.7598 72.0013ZM45.4936 160.514H29.2275V156.49H45.4936V160.514ZM66.843 148.444H7.87811V84.0712H66.843V148.444Z" fill="#2A324B"/>
</svg>
