<svg width="81" height="81" viewBox="0 0 81 81" fill="none" xmlns="http://www.w3.org/2000/svg">
<path d="M26.9156 59.9063H54.0844V54.8438H26.9156V59.9063ZM26.9156 45.5625H54.0844V40.5H26.9156V45.5625ZM18.5625 74.25C17.2125 74.25 16.0313 73.7438 15.0188 72.7313C14.0063 71.7188 13.5 70.5375 13.5 69.1875V11.8125C13.5 10.4625 14.0063 9.28125 15.0188 8.26875C16.0313 7.25625 17.2125 6.75 18.5625 6.75H49.0219L67.5 25.2281V69.1875C67.5 70.5375 66.9938 71.7188 65.9813 72.7313C64.9688 73.7438 63.7875 74.25 62.4375 74.25H18.5625ZM46.4906 27.5063V11.8125H18.5625V69.1875H62.4375V27.5063H46.4906Z" fill="#2A324B"/>
</svg>
