<svg width="146" height="103" viewBox="0 0 146 103" fill="none" xmlns="http://www.w3.org/2000/svg">
<path d="M123.815 80.4898C118.56 80.4898 114.318 76.2059 114.318 70.899V54.9144C114.318 49.6075 118.56 45.3237 123.815 45.3237C129.071 45.3237 133.313 49.6075 133.313 54.9144V70.899C133.313 76.2059 129.071 80.4898 123.815 80.4898ZM120.649 102.868H126.981V93.0217C137.682 91.4872 145.976 82.1522 145.976 70.899H139.645C139.645 79.7225 132.553 86.8836 123.815 86.8836C115.078 86.8836 107.986 79.7225 107.986 70.899H101.654C101.654 82.1522 109.949 91.4872 120.649 93.0217V102.868ZM51.0007 51.7175C37.0076 51.7175 25.6739 40.2725 25.6739 26.1421C25.6739 12.0118 37.0076 0.566772 51.0007 0.566772C53.9766 0.566772 56.8259 1.07828 59.4852 2.03736C54.1665 8.62301 51.0007 16.9989 51.0007 26.1421C51.0007 35.2853 54.1665 43.6613 59.4852 50.2469C56.8259 51.206 53.9766 51.7175 51.0007 51.7175ZM39.0338 58.9426C30.6759 64.8249 25.6739 74.5435 25.6739 85.0934V102.868H0.347076V85.0934C0.347076 77.9323 4.20941 71.3466 10.5411 68.0857C18.3924 63.9937 28.0166 60.4771 39.0338 58.9426ZM63.6641 26.1421C63.6641 12.0118 74.9979 0.566772 88.9909 0.566772C102.984 0.566772 114.318 12.0118 114.318 26.1421C114.318 40.2725 102.984 51.7175 88.9909 51.7175C74.9979 51.7175 63.6641 40.2725 63.6641 26.1421ZM76.3275 26.1421C76.3275 33.1754 82.026 38.9298 88.9909 38.9298C95.9558 38.9298 101.654 33.1754 101.654 26.1421C101.654 19.1089 95.9558 13.3545 88.9909 13.3545C82.026 13.3545 76.3275 19.1089 76.3275 26.1421ZM88.9909 70.899C73.9848 70.899 61.8279 75.5665 54.2932 79.4668C52.267 80.4898 51.0007 82.6637 51.0007 85.0934V90.0806H96.399C99.5649 95.5793 104.314 100.055 110.012 102.868H38.3373V85.0934C38.3373 77.9323 42.1996 71.3466 48.5313 68.0857C59.1686 62.587 72.9717 58.1114 88.9909 58.1114C91.4603 58.1114 93.8663 58.2392 96.2091 58.431C94.1196 62.2034 92.7266 66.4873 92.2834 70.963C91.207 70.899 90.1306 70.899 88.9909 70.899Z" fill="#2A324B"/>
</svg>
