<svg width="84" height="59" viewBox="0 0 84 59" fill="none" xmlns="http://www.w3.org/2000/svg">
<path d="M0 59V50.0692C0 47.8524 0.570136 45.8414 1.71041 44.0362C2.85068 42.2311 4.43439 40.8851 6.46154 39.9984C11.086 37.9715 15.2511 36.5148 18.957 35.628C22.6629 34.7413 26.4796 34.2979 30.4072 34.2979C34.3348 34.2979 38.1357 34.7413 41.81 35.628C45.4842 36.5148 49.6335 37.9715 54.2579 39.9984C56.2851 40.8851 57.8846 42.2311 59.0566 44.0362C60.2285 45.8414 60.8145 47.8524 60.8145 50.0692V59H0ZM66.5158 59V50.0692C66.5158 46.0789 65.5023 42.8011 63.4751 40.2359C61.448 37.6707 58.7873 35.5964 55.4932 34.0129C59.8643 34.5196 63.9819 35.2638 67.8462 36.2456C71.7104 37.2273 74.8462 38.3516 77.2534 39.6184C79.3439 40.8218 80.991 42.3103 82.1946 44.0837C83.3982 45.8572 84 47.8524 84 50.0692V59H66.5158ZM30.4072 28.5024C26.2262 28.5024 22.8054 27.1723 20.1448 24.5121C17.4842 21.8519 16.1538 18.4316 16.1538 14.2512C16.1538 10.0709 17.4842 6.65056 20.1448 3.99034C22.8054 1.33011 26.2262 0 30.4072 0C34.5882 0 38.0091 1.33011 40.6697 3.99034C43.3303 6.65056 44.6606 10.0709 44.6606 14.2512C44.6606 18.4316 43.3303 21.8519 40.6697 24.5121C38.0091 27.1723 34.5882 28.5024 30.4072 28.5024ZM64.6154 14.2512C64.6154 18.4316 63.2851 21.8519 60.6244 24.5121C57.9638 27.1723 54.543 28.5024 50.362 28.5024C49.6652 28.5024 48.8891 28.4549 48.0339 28.3599C47.1787 28.2649 46.4027 28.0907 45.7059 27.8374C47.2262 26.2539 48.3824 24.3062 49.1742 21.9944C49.9661 19.6825 50.362 17.1014 50.362 14.2512C50.362 11.401 49.9661 8.88325 49.1742 6.69807C48.3824 4.51288 47.2262 2.50188 45.7059 0.665056C46.4027 0.47504 47.1787 0.316694 48.0339 0.190016C48.8891 0.0633387 49.6652 0 50.362 0C54.543 0 57.9638 1.33011 60.6244 3.99034C63.2851 6.65056 64.6154 10.0709 64.6154 14.2512ZM5.70136 53.2995H55.1131V50.0692C55.1131 49.0558 54.8122 48.0741 54.2104 47.124C53.6086 46.1739 52.8643 45.5089 51.9774 45.1288C47.4163 43.102 43.5837 41.7402 40.4796 41.0435C37.3756 40.3468 34.0181 39.9984 30.4072 39.9984C26.7964 39.9984 23.4231 40.3468 20.2873 41.0435C17.1516 41.7402 13.3032 43.102 8.74208 45.1288C7.8552 45.5089 7.1267 46.1739 6.55656 47.124C5.98643 48.0741 5.70136 49.0558 5.70136 50.0692V53.2995ZM30.4072 22.8019C32.8778 22.8019 34.9208 21.9944 36.5362 20.3792C38.1516 18.7641 38.9593 16.7214 38.9593 14.2512C38.9593 11.781 38.1516 9.73833 36.5362 8.12319C34.9208 6.50805 32.8778 5.70048 30.4072 5.70048C27.9367 5.70048 25.8937 6.50805 24.2783 8.12319C22.6629 9.73833 21.8552 11.781 21.8552 14.2512C21.8552 16.7214 22.6629 18.7641 24.2783 20.3792C25.8937 21.9944 27.9367 22.8019 30.4072 22.8019Z" fill="#2A324B"/>
</svg>
