<svg width="62" height="78" viewBox="0 0 62 78" fill="none" xmlns="http://www.w3.org/2000/svg">
<path d="M20.7312 51.48L31 43.875L40.9781 51.48L36.8125 39.195L47.0812 31.785H34.6812L31 19.5975L27.3187 31.785H14.9187L24.9937 39.195L20.7312 51.48ZM31 78C21.9583 75.725 14.5312 70.4437 8.71875 62.1562C2.90625 53.8687 0 44.785 0 34.905V11.7L31 0L62 11.7V34.905C62 44.785 59.0938 53.8687 53.2812 62.1562C47.4688 70.4437 40.0417 75.725 31 78ZM31 71.955C38.4271 69.485 44.4818 64.8213 49.1641 57.9637C53.8464 51.1062 56.1875 43.42 56.1875 34.905V15.795L31 6.24L5.8125 15.795V34.905C5.8125 43.42 8.15365 51.1062 12.8359 57.9637C17.5182 64.8213 23.5729 69.485 31 71.955Z" fill="#2A324B"/>
</svg>
