<svg width="71" height="71" viewBox="0 0 71 71" fill="none" xmlns="http://www.w3.org/2000/svg">
<path d="M3 22C3 11.5066 11.5066 3 22 3H49C59.4934 3 68 11.5066 68 22V49C68 59.4934 59.4934 68 49 68H22C11.5066 68 3 59.4934 3 49V22Z" stroke="#2A324B" stroke-width="6"/>
<path d="M22.525 35.8549C22.525 42.8247 28.1752 48.4749 35.145 48.4749C42.1148 48.4749 47.765 42.8247 47.765 35.8549C47.765 28.885 42.1148 23.2349 35.145 23.2349C28.1752 23.2349 22.525 28.885 22.525 35.8549Z" stroke="#2A324B" stroke-width="6"/>
<path d="M49.265 16.9748C49.265 19.0514 50.9484 20.7348 53.025 20.7348C55.1016 20.7348 56.785 19.0514 56.785 16.9748C56.785 14.8983 55.1016 13.2148 53.025 13.2148C50.9484 13.2148 49.265 14.8983 49.265 16.9748Z" fill="#2A324B" stroke="#2A324B"/>
</svg>
