<svg width="56" height="57" viewBox="0 0 56 57" fill="none" xmlns="http://www.w3.org/2000/svg">
<path fill-rule="evenodd" clip-rule="evenodd" d="M14.2376 2.6435C13.2056 0.129755 12.119 0.0794335 11.1372 0.0354528C10.3341 -0.00228814 9.41469 2.76693e-05 8.49677 2.76693e-05C7.57812 2.76693e-05 6.08532 0.378241 4.82291 1.88868C3.55977 3.39912 0 7.05053 0 14.4768C0 21.9039 4.93774 29.0803 5.62599 30.0882C6.31498 31.0946 15.1577 46.8216 29.1621 52.8719C40.8009 57.9001 43.1694 56.8999 45.6956 56.6483C48.2219 56.3967 53.8472 52.9977 54.9955 49.4728C56.1438 45.9487 56.1438 42.9279 55.7993 42.2965C55.4548 41.6675 54.5362 41.2901 53.1582 40.5353C51.7802 39.7805 45.0067 36.1282 43.7435 35.625C42.4804 35.1218 41.5617 34.8702 40.6431 36.3815C39.7244 37.8911 37.0854 41.2901 36.2816 42.2965C35.4778 43.3053 34.674 43.4311 33.296 42.6762C31.918 41.9191 27.4805 40.3268 22.2162 35.1846C18.1204 31.1841 15.355 26.2431 14.5512 24.732C13.7474 23.2224 14.4651 22.4046 15.1562 21.6521C15.7749 20.9759 16.5342 19.8901 17.2232 19.0087C17.9107 18.1272 18.1404 17.4982 18.5997 16.4918C19.059 15.4838 18.8294 14.6024 18.4849 13.8476C18.1404 13.0928 15.4627 5.62815 14.2376 2.6435Z" fill="#2A324B"/>
</svg>
