<svg width="122" height="113" viewBox="0 0 122 113" fill="none" xmlns="http://www.w3.org/2000/svg">
<path d="M2.11243 110.476L10.4321 82.6082C5.29938 74.4523 2.60021 65.1991 2.60344 55.7224C2.6169 26.0705 28.923 1.94666 61.245 1.94666C76.9325 1.95315 91.6561 7.55382 102.726 17.7188C113.799 27.8837 119.893 41.3951 119.887 55.7645C119.873 85.4171 93.5653 109.543 61.2474 109.543H61.2213C51.4073 109.54 41.7642 107.28 33.1995 102.998L2.11243 110.476Z" fill="url(#paint0_linear_170_20)"/>
<path fill-rule="evenodd" clip-rule="evenodd" d="M46.0731 32.4167C44.9362 30.098 43.7392 30.0515 42.6576 30.011C41.7729 29.9762 40.7601 29.9783 39.7489 29.9783C38.737 29.9783 37.0925 30.3272 35.7018 31.7205C34.3103 33.1138 30.3889 36.482 30.3889 43.3323C30.3889 50.1834 35.8283 56.8031 36.5865 57.7329C37.3455 58.6613 47.0867 73.1685 62.5139 78.7496C75.3353 83.3878 77.9444 82.4652 80.7274 82.2331C83.5104 82.001 89.7072 78.8656 90.9722 75.6141C92.2372 72.3633 92.2372 69.5769 91.8577 68.9944C91.4782 68.4142 90.4662 68.066 88.9482 67.3697C87.4302 66.6735 79.9684 63.3045 78.5769 62.8403C77.1854 62.3761 76.1735 62.1441 75.1615 63.5381C74.1495 64.9306 71.2423 68.066 70.3568 68.9944C69.4714 69.9249 68.5859 70.0409 67.0679 69.3447C65.5499 68.6462 60.6615 67.1775 54.8624 62.4341C50.3503 58.7438 47.304 54.1861 46.4186 52.7921C45.5331 51.3996 46.3236 50.6453 47.0851 49.9511C47.7665 49.3274 48.603 48.3257 49.362 47.5127C50.1194 46.6996 50.3724 46.1194 50.8784 45.191C51.3844 44.2612 51.1314 43.4482 50.7519 42.7519C50.3724 42.0556 47.4227 35.1699 46.0731 32.4167Z" fill="white"/>
<path d="M104.225 16.3372C92.755 5.80815 77.5041 0.00659142 61.2554 0C27.772 0 0.523401 24.9891 0.509941 55.7043C0.505994 65.5226 3.30242 75.1065 8.61769 83.5547L0 112.421L32.2018 104.675C41.0741 109.114 51.0635 111.453 61.2293 111.456H61.2551H61.2554C94.7332 111.456 121.986 86.463 122 55.7492C122.006 40.8635 115.692 26.8669 104.225 16.3372ZM61.2554 102.048H61.2356C52.1744 102.044 43.2886 99.812 35.5382 95.593L33.6937 94.5899L14.5845 99.1861L19.6863 82.1005L18.4846 80.3489C13.4302 72.9764 10.7619 64.4564 10.7658 55.708C10.7769 30.1786 33.4249 9.40921 61.2744 9.40921C74.7608 9.41431 87.4359 14.2367 96.9692 22.9881C106.502 31.7394 111.747 43.373 111.743 55.7458C111.731 81.2758 89.0826 102.048 61.2554 102.048Z" fill="white"/>
<defs>
<linearGradient id="paint0_linear_170_20" x1="60.9995" y1="110.476" x2="60.9995" y2="1.94684" gradientUnits="userSpaceOnUse">
<stop stop-color="#20B038"/>
<stop offset="1" stop-color="#60D66A"/>
</linearGradient>
</defs>
</svg>
