<svg width="82" height="76" viewBox="0 0 82 76" fill="none" xmlns="http://www.w3.org/2000/svg">
<path d="M69.9986 10.9723C62.2956 3.90084 52.0528 0.00442689 41.14 0C18.6521 0 0.351523 16.783 0.342484 37.4118C0.339833 44.0059 2.21795 50.4426 5.78776 56.1165L0 75.5036L21.6272 70.3012C27.5859 73.2823 34.295 74.8533 41.1224 74.8557H41.1398H41.14C63.6241 74.8557 81.9273 58.0698 81.9369 37.4419C81.9407 27.4445 77.7007 18.0442 69.9986 10.9723ZM41.14 68.5369H41.1267C35.0411 68.534 29.0733 67.0351 23.868 64.2016L22.6291 63.5279L9.79514 66.6148L13.2216 55.1398L12.4145 53.9635C9.01991 49.012 7.22784 43.2898 7.23049 37.4143C7.2379 20.2684 22.4486 6.31936 41.1527 6.31936C50.2104 6.32278 58.7232 9.56158 65.1259 15.4391C71.528 21.3167 75.0511 29.1299 75.0484 37.4396C75.0404 54.586 59.8292 68.5369 41.14 68.5369Z" fill="#2A324B"/>
<mask id="mask0_239_2" style="mask-type:alpha" maskUnits="userSpaceOnUse" x="20" y="20" width="42" height="36">
<path fill-rule="evenodd" clip-rule="evenodd" d="M30.5337 21.6377C29.7702 20.0804 28.9663 20.0492 28.2399 20.022C27.6457 19.9986 26.9655 20 26.2864 20C25.6067 20 24.5022 20.2343 23.5682 21.1701C22.6337 22.1058 20 24.368 20 28.9688C20 33.5701 23.6532 38.016 24.1624 38.6404C24.6722 39.2639 31.2145 49.0072 41.5757 52.7555C50.1867 55.8706 51.939 55.251 53.8081 55.0951C55.6772 54.9392 59.839 52.8335 60.6886 50.6497C61.5382 48.4664 61.5382 46.595 61.2833 46.2038C61.0284 45.8141 60.3488 45.5803 59.3293 45.1126C58.3098 44.645 53.2983 42.3824 52.3638 42.0706C51.4292 41.7589 50.7496 41.603 50.0699 42.5392C49.3902 43.4745 47.4378 45.5803 46.8431 46.2038C46.2484 46.8287 45.6536 46.9067 44.6341 46.439C43.6147 45.97 40.3315 44.9835 36.4368 41.7978C33.4064 39.3193 31.3605 36.2583 30.7658 35.3221C30.1711 34.3868 30.702 33.8802 31.2134 33.4141C31.6711 32.9951 32.2329 32.3224 32.7426 31.7764C33.2513 31.2303 33.4212 30.8406 33.7611 30.2171C34.1009 29.5926 33.931 29.0466 33.6761 28.579C33.4212 28.1113 31.4401 23.4868 30.5337 21.6377Z" fill="#2A324B"/>
</mask>
<g mask="url(#mask0_239_2)">
<rect x="-25" y="-12" width="100" height="100" fill="#2A324B"/>
</g>
</svg>
